<?xml version="1.0" standalone="no"?>
<!DOCTYPE svg PUBLIC "-//W3C//DTD SVG 20010904//EN"
 "http://www.w3.org/TR/2001/REC-SVG-20010904/DTD/svg10.dtd">
<svg version="1.0" xmlns="http://www.w3.org/2000/svg"
 width="1472.000000pt" height="832.000000pt" viewBox="0 0 1472.000000 832.000000"
 preserveAspectRatio="xMidYMid meet">

<g transform="translate(0.000000,832.000000) scale(0.100000,-0.100000)"
fill="#000000" stroke="none">
<path d="M0 4160 l0 -4160 7360 0 7360 0 0 4160 0 4160 -7360 0 -7360 0 0
-4160z m6790 3323 c0 -37 -3 -63 -7 -59 -10 10 -10 136 -1 129 5 -2 8 -34 8
-70z m3648 -5 l-1 -83 -6 65 c-3 36 -4 73 -2 83 7 37 11 14 9 -65z m-3927 63
l227 -1 6 -34 c4 -19 4 -46 1 -59 -6 -23 -11 -25 -100 -29 -145 -8 -229 -60
-284 -177 l-26 -56 0 -1385 0 -1385 1215 0 1215 0 0 1380 0 1380 -22 47 c-53
116 -161 188 -291 195 -125 7 -122 5 -122 68 l0 55 1035 0 1036 0 -3 -57 -3
-58 -103 -7 c-84 -5 -111 -11 -146 -32 -84 -49 -138 -131 -156 -237 -8 -45
-10 -929 -8 -3039 l3 -2975 22 -47 c28 -59 84 -122 139 -154 37 -22 147 -43
232 -44 10 0 12 -16 10 -62 l-3 -63 -1025 0 c-993 0 -1025 1 -1028 19 -2 10
-1 38 3 62 l6 44 62 0 c158 0 271 70 334 205 l28 60 3 1030 c2 567 0 1044 -3
1062 l-6 32 -702 3 c-386 2 -933 2 -1214 0 l-513 -3 0 -1053 c0 -1152 -3
-1098 60 -1196 54 -83 136 -124 280 -138 l75 -7 0 -60 0 -60 -1037 -3 -1038
-2 0 60 c0 69 -5 66 121 74 130 8 237 76 297 189 l27 52 0 3025 0 3025 -25 49
c-33 64 -89 119 -156 152 -43 21 -77 28 -162 35 -59 4 -108 8 -109 8 -2 1 -3
26 -3 56 l0 55 513 2 c467 3 653 3 1338 -1z m-74 -249 c-14 -15 -36 -49 -49
-77 l-23 -50 -3 -1310 c-2 -720 0 -1329 3 -1352 4 -27 12 -43 23 -46 10 -3 5
-5 -11 -6 l-27 -1 2 1363 3 1362 24 45 c25 48 73 109 80 103 3 -2 -7 -16 -22
-31z m3663 15 c0 -2 -10 -12 -22 -23 l-23 -19 19 23 c18 21 26 27 26 19z m-57
-87 c-9 -22 -18 -38 -20 -36 -5 5 24 76 31 76 2 0 -3 -18 -11 -40z m-5138 -42
c9 -18 20 -52 26 -76 6 -27 9 -1112 9 -2950 0 -2605 -1 -2912 -15 -2960 -9
-28 -20 -52 -24 -52 -5 0 -12 -12 -15 -26 -4 -15 -10 -24 -13 -21 -3 3 4 26
16 50 22 46 26 61 13 53 -4 -2 -9 10 -9 27 -2 27 -1 29 8 12 7 -16 8 -13 4 13
-2 18 -1 31 3 28 5 -3 4 25 0 61 -5 36 -7 77 -5 92 2 16 5 9 6 -19 1 -25 5
-50 9 -57 8 -12 7 576 -3 1530 -4 444 -3 637 4 637 8 0 11 158 11 508 0 342
-4 502 -10 492 -7 -10 -10 124 -9 413 1 235 6 427 11 427 4 0 8 18 8 41 0 24
-4 38 -10 34 -10 -6 -13 143 -9 475 2 194 2 189 11 184 4 -3 7 66 6 153 -1
131 -3 144 -8 78 -3 -44 -7 116 -7 356 -2 420 -7 519 -24 474 -5 -14 -7 -9 -6
17 1 21 3 38 4 38 1 0 9 -15 18 -32z m5114 -1451 c4 -1441 -7 -3972 -17 -3963
-13 14 -2 5406 12 5406 0 0 3 -649 5 -1443z m-1432 168 c3 -856 0 -1230 -8
-1277 -10 -65 -38 -118 -61 -118 -6 0 -3 9 7 20 12 13 14 20 5 20 -7 0 -10 7
-6 16 4 9 11 128 16 263 12 302 19 803 10 741 -3 -25 -4 95 -2 265 2 171 4
470 5 665 0 195 4 328 8 295 7 -63 4 58 -6 215 -3 55 -2 67 5 45 7 -24 8 -17
6 33 -2 47 0 58 8 45 6 -12 11 -437 13 -1228z m-3500 -3237 c-1 -805 -2 -147
-2 1462 0 1609 1 2267 2 1463 2 -805 2 -2121 0 -2925z m3526 1795 c-23 -2 -64
-2 -90 0 -26 2 -7 3 42 3 50 0 71 -1 48 -3z m-3696 -795 c-2 -35 -3 -7 -3 62
0 69 1 97 3 63 2 -35 2 -91 0 -125z m1455 -1470 l3 -1053 23 -45 c13 -25 38
-61 55 -80 23 -25 25 -29 7 -15 -38 30 -49 45 -78 105 l-27 55 -3 1043 c-2
699 1 1042 8 1042 6 0 11 -350 12 -1052z m2196 947 c16 -27 17 -110 17 -975
l-1 -945 -22 -45 c-12 -25 -32 -56 -45 -70 -12 -14 -19 -21 -15 -15 17 26 35
105 36 155 4 180 16 360 23 360 6 0 8 64 5 158 -3 86 -8 394 -12 684 -3 290
-10 555 -15 590 -5 35 -10 71 -11 81 -1 9 -6 17 -11 17 -5 0 -6 9 -2 20 5 15
3 18 -9 14 -18 -7 -21 7 -5 23 14 14 43 -9 67 -52z m-3651 -1117 c-2 -13 -4
-3 -4 22 0 25 2 35 4 23 2 -13 2 -33 0 -45z m0 -230 c-2 -13 -4 -5 -4 17 -1
22 1 32 4 23 2 -10 2 -28 0 -40z m0 -170 c-2 -13 -4 -3 -4 22 0 25 2 35 4 23
2 -13 2 -33 0 -45z m5126 -522 c13 -28 39 -66 58 -85 21 -21 26 -29 13 -23
-55 29 -115 150 -113 230 l1 47 9 -59 c5 -32 19 -81 32 -110z m-4966 72 c-3
-8 -6 -5 -6 6 -1 11 2 17 5 13 3 -3 4 -12 1 -19z m5350 -375 c-2 -27 -3 -5 -3
47 0 52 1 74 3 48 2 -27 2 -69 0 -95z m-3640 5 c-2 -24 -4 -5 -4 42 0 47 2 66
4 43 2 -24 2 -62 0 -85z"/>
<path d="M5327 7323 c-9 -8 -9 -6305 -1 -6327 5 -14 50 -16 403 -16 l398 0 5
218 c4 167 3 4653 -1 5910 l-1 222 -398 0 c-219 0 -402 -3 -405 -7z"/>
<path d="M8968 4528 c-2 -2830 -2 -2911 1 -3320 l1 -228 410 0 410 0 0 3175 0
3175 -410 0 -410 0 -2 -2802z"/>
<path d="M6337 4193 c-4 -3 -7 -161 -7 -350 l0 -343 1220 0 1220 0 0 350 0
350 -1213 0 c-668 0 -1217 -3 -1220 -7z"/>
<path d="M4923 6445 c0 -22 2 -30 4 -17 2 12 2 30 0 40 -3 9 -5 -1 -4 -23z"/>
<path d="M4923 4960 c0 -47 2 -66 4 -42 2 23 2 61 0 85 -2 23 -4 4 -4 -43z"/>
<path d="M4923 4720 c0 -47 2 -66 4 -42 2 23 2 61 0 85 -2 23 -4 4 -4 -43z"/>
<path d="M4923 3475 c0 -22 2 -30 4 -17 2 12 2 30 0 40 -3 9 -5 -1 -4 -23z"/>
<path d="M8553 5720 c0 -25 2 -35 4 -22 2 12 2 32 0 45 -2 12 -4 2 -4 -23z"/>
</g>
</svg>
